<svg xmlns="http://www.w3.org/2000/svg" width="103.63" height="36.745" viewBox="0 0 103.63 36.745"><defs><style>.a{fill:#aab2ab;}.b{fill:none;stroke:#000;stroke-miterlimit:10;stroke-width:0.75px;}.c{fill:#fff;}.d{fill-rule:evenodd;}.e{isolation:isolate;}</style></defs><g transform="translate(0.375 0.375)"><g transform="translate(0 0)"><path class="a" d="M1.5,0h99.88a1.5,1.5,0,0,1,1.5,1.5V36a0,0,0,0,1,0,0H0a0,0,0,0,1,0,0V1.5A1.5,1.5,0,0,1,1.5,0Z" transform="translate(0)"/><path class="b" d="M1.5,0h99.88a1.5,1.5,0,0,1,1.5,1.5V36a0,0,0,0,1,0,0H0a0,0,0,0,1,0,0V1.5A1.5,1.5,0,0,1,1.5,0Z" transform="translate(0)"/><g transform="translate(0 25.207)"><path d="M34.276,61.9a15.184,15.184,0,0,1-26.637,0H3.105V72.685h102.88V61.9Z" transform="translate(-3.105 -61.897)"/></g></g><g transform="translate(34.346 2.234)"><circle class="c" cx="8.721" cy="8.721" r="8.721" transform="translate(1.272 1.271)"/><g transform="translate(7.303 3.539)"><path d="M108.029,24.061a.646.646,0,0,0-.646-.646H103.3a.646.646,0,0,0-.646.646v4.087h1.14v4.84h3.1v-4.84h1.141V24.061Z" transform="translate(-102.651 -20.081)"/><circle cx="1.398" cy="1.398" r="1.398" transform="translate(1.291)"/></g><path class="d" d="M95.174,6.989a9.526,9.526,0,0,0-7.028,2.9A9.772,9.772,0,0,0,85.2,16.981a9.608,9.608,0,0,0,2.951,7.044,9.6,9.6,0,0,0,7.028,2.947A9.865,9.865,0,0,0,102.328,24a9.476,9.476,0,0,0,2.852-7.019A9.9,9.9,0,0,0,95.174,6.989Zm.025,1.8a7.83,7.83,0,0,1,5.778,2.4,7.835,7.835,0,0,1,2.4,5.8,7.619,7.619,0,0,1-2.351,5.72A8.019,8.019,0,0,1,95.2,25.148a7.894,7.894,0,0,1-5.777-2.423A7.843,7.843,0,0,1,87,16.981a7.97,7.97,0,0,1,2.451-5.8A7.75,7.75,0,0,1,95.2,8.787Z" transform="translate(-85.195 -6.989)"/></g><g transform="translate(56.736 2.234)"><circle class="c" cx="8.721" cy="8.721" r="8.721" transform="translate(1.272 1.271)"/><path d="M148.69,6.989a9.9,9.9,0,0,1,10,9.992A9.482,9.482,0,0,1,155.843,24a9.867,9.867,0,0,1-7.153,2.972,9.6,9.6,0,0,1-7.029-2.948,9.6,9.6,0,0,1-2.951-7.044,9.772,9.772,0,0,1,2.951-7.095A9.528,9.528,0,0,1,148.69,6.989ZM140.958,14.3a8,8,0,0,0-.446,2.684,7.845,7.845,0,0,0,2.425,5.745,7.9,7.9,0,0,0,5.778,2.423,8.015,8.015,0,0,0,5.827-2.448,7.669,7.669,0,0,0,1.366-1.748l-3.767-1.677a2.9,2.9,0,0,1-2.75,2.223V23.04h-1.147V21.5a4.744,4.744,0,0,1-3.033-1.2l1.376-1.387a3.013,3.013,0,0,0,2.231.9c.586,0,1.236-.229,1.236-.993a.747.747,0,0,0-.27-.6l-.953-.425-1.187-.528-1.582-.7Zm7.757-5.509a7.744,7.744,0,0,0-5.752,2.4,9.27,9.27,0,0,0-1.114,1.35l3.821,1.7a2.725,2.725,0,0,1,2.574-1.774V10.921h1.147v1.541a4.3,4.3,0,0,1,2.51.916l-1.313,1.35a3.035,3.035,0,0,0-1.707-.585c-.5,0-1.2.152-1.2.776a.4.4,0,0,0,.09.254l1.278.569.864.386,1.6.714,5.119,2.279a8.677,8.677,0,0,0,.254-2.138,7.836,7.836,0,0,0-2.4-5.8A7.828,7.828,0,0,0,148.715,8.787Z" transform="translate(-138.71 -6.989)"/></g><g transform="translate(4.632 2.868)"><circle class="c" cx="11.263" cy="11.263" r="11.263" transform="translate(2.125 2.143)"/><path d="M37.064,12.393a12.944,12.944,0,0,1,3.887,9.518,12.728,12.728,0,0,1-3.82,9.418,13.211,13.211,0,0,1-9.584,3.988,12.858,12.858,0,0,1-9.417-3.955,12.9,12.9,0,0,1-3.954-9.451,13.12,13.12,0,0,1,3.954-9.518,12.753,12.753,0,0,1,9.417-3.888A12.94,12.94,0,0,1,37.064,12.393ZM19.875,14.136a10.7,10.7,0,0,0-3.286,7.778,10.536,10.536,0,0,0,3.253,7.71,10.579,10.579,0,0,0,7.745,3.252A10.74,10.74,0,0,0,35.4,29.591a10.236,10.236,0,0,0,3.152-7.677,10.609,10.609,0,0,0-3.2-7.795,10.569,10.569,0,0,0-7.761-3.2A10.381,10.381,0,0,0,19.875,14.136Zm5.766,6.471a1.609,1.609,0,0,0-1.5-1.095q-1.772,0-1.772,2.385t1.772,2.386a1.717,1.717,0,0,0,1.672-1.163l1.638.872a3.791,3.791,0,0,1-3.514,2.08,3.871,3.871,0,0,1-2.894-1.107,4.169,4.169,0,0,1-1.088-3.054,4.111,4.111,0,0,1,1.121-3.037,3.785,3.785,0,0,1,2.794-1.125,3.73,3.73,0,0,1,3.548,1.95Zm7.705,0a1.593,1.593,0,0,0-1.474-1.095q-1.808,0-1.808,2.385t1.808,2.386a1.66,1.66,0,0,0,1.641-1.163l1.674.872a3.783,3.783,0,0,1-3.507,2.08,3.864,3.864,0,0,1-2.89-1.107,4.18,4.18,0,0,1-1.085-3.054,4.149,4.149,0,0,1,1.1-3.037,3.758,3.758,0,0,1,2.805-1.125,3.72,3.72,0,0,1,3.54,1.95Z" transform="translate(-14.176 -8.505)"/></g><g class="e" transform="translate(39.025 27.725)"><path class="c" d="M99.028,67.915a3.5,3.5,0,0,1,.733.071,1.584,1.584,0,0,1,.568.232,1.076,1.076,0,0,1,.366.428,1.506,1.506,0,0,1,.13.661,1.222,1.222,0,0,1-.193.707,1.4,1.4,0,0,1-.571.464,1.355,1.355,0,0,1,.778.523,1.713,1.713,0,0,1,.091,1.637,1.44,1.44,0,0,1-.445.507,1.972,1.972,0,0,1-.639.291,2.875,2.875,0,0,1-.738.095H96.38V67.915Zm-.158,2.272a.893.893,0,0,0,.543-.157.59.59,0,0,0,.213-.51.653.653,0,0,0-.071-.322.532.532,0,0,0-.19-.2.794.794,0,0,0-.272-.1,1.841,1.841,0,0,0-.319-.027H97.618v1.31Zm.072,2.384a1.638,1.638,0,0,0,.347-.036.875.875,0,0,0,.292-.118.6.6,0,0,0,.2-.225.766.766,0,0,0,.075-.361.725.725,0,0,0-.245-.617,1.048,1.048,0,0,0-.646-.185H97.618V72.57Z" transform="translate(-96.38 -67.915)"/><path class="c" d="M108.17,67.915h1.385l1.315,2.218,1.307-2.218h1.377l-2.085,3.461v2.156h-1.238V71.345Z" transform="translate(-103.237 -67.915)"/></g><g class="e" transform="translate(60.859 27.606)"><path class="c" d="M149.795,67.961l2.347,3.768h.013V67.961h1.159v5.616h-1.235l-2.338-3.76h-.015v3.76h-1.159V67.961Z" transform="translate(-148.566 -67.823)"/><path class="c" d="M165.768,69.265a1.218,1.218,0,0,0-.276-.311,1.254,1.254,0,0,0-.374-.208,1.276,1.276,0,0,0-.436-.075,1.443,1.443,0,0,0-.708.161,1.321,1.321,0,0,0-.472.432,1.9,1.9,0,0,0-.264.618,3.055,3.055,0,0,0-.082.715,2.845,2.845,0,0,0,.082.688,1.851,1.851,0,0,0,.264.6,1.341,1.341,0,0,0,.472.428,1.438,1.438,0,0,0,.708.161,1.141,1.141,0,0,0,.885-.346,1.6,1.6,0,0,0,.39-.913h1.2a2.846,2.846,0,0,1-.243.952,2.288,2.288,0,0,1-.519.725,2.208,2.208,0,0,1-.756.458,2.754,2.754,0,0,1-.952.158,2.882,2.882,0,0,1-1.161-.225,2.493,2.493,0,0,1-.87-.618,2.722,2.722,0,0,1-.544-.925,3.4,3.4,0,0,1-.19-1.146,3.51,3.51,0,0,1,.19-1.169,2.791,2.791,0,0,1,.544-.941,2.5,2.5,0,0,1,.87-.63,3.012,3.012,0,0,1,2.039-.094,2.35,2.35,0,0,1,.739.39,2.1,2.1,0,0,1,.539.633,2.274,2.274,0,0,1,.267.866h-1.2A1.01,1.01,0,0,0,165.768,69.265Z" transform="translate(-156.332 -67.63)"/></g><g transform="translate(79.126 2.234)"><circle class="c" cx="8.721" cy="8.721" r="8.721" transform="translate(1.27 1.271)"/><path d="M201.962,6.99a10.119,10.119,0,1,0,.254,0C202.13,6.99,202.048,6.988,201.962,6.99Zm-.01,1.717c.088,0,.174,0,.264,0a8.143,8.143,0,1,1-.264,0Z" transform="translate(-192.225 -6.989)"/><path d="M204.555,21.768H203.7l1.941,2.176,1.942-2.176h-.7a1.957,1.957,0,0,1,2.164-1.658c.043,0,.084,0,.127,0,1.757,0,2.45,1.328,2.507,3.288.06,2.045-1.125,3.316-2.507,3.288a2,2,0,0,1-2.225-1.786h-2.6a4.507,4.507,0,0,0,4.771,3.873A5.091,5.091,0,0,0,214.08,23.4c0-3.171-2.082-5.376-4.966-5.376-.086,0-.169,0-.254,0-.02,0-.038,0-.059,0C207,18.051,204.555,19.314,204.555,21.768Z" transform="translate(-198.898 -13.404)"/></g><g transform="translate(83.197 27.496)"><path class="c" d="M218.073,73.551l-.463-1.234h-2.124L215,73.551h-1.27l2.186-5.673h1.219l2.235,5.673Zm-1.536-4.225c-.289.78-.5,1.273-.761,1.987.6-.028.965.024,1.486,0Z" transform="translate(-208.802 -67.665)"/><path class="c" d="M201.956,71.428c.375,0,.765.013,1.242,0a1.2,1.2,0,0,0,1.3,1,.919.919,0,0,0,.976-.695.721.721,0,0,0-.661-.736A7.178,7.178,0,0,1,203,70.464a1.306,1.306,0,0,1-.872-1.283,1.812,1.812,0,0,1,1-1.488,2.3,2.3,0,0,1,3.516,1.661h-1.2a1.091,1.091,0,0,0-1.084-.92c-.584,0-.925.351-.925.611a.58.58,0,0,0,.4.541c.556.233,1.207.221,1.723.455a1.627,1.627,0,0,1,1.163,1.682c0,.85-.746,1.744-2.335,1.744C203.945,73.467,201.99,73.284,201.956,71.428Z" transform="translate(-201.956 -67.368)"/></g></g></svg>